
 <svg width="128" height="128" viewBox="0 0 128 128" fill="none" xmlns="http://www.w3.org/2000/svg">
            <mask id="mask0_142_30"  maskUnits="userSpaceOnUse" x="4" y="18" width="65" height="64">
            <path d="M68.5704 18H4V82H68.5704V18Z" fill="white"/>
            </mask>
            <g mask="url(#mask0_142_30)">
            <g filter="url(#filter0_d_142_30)">
            <path d="M10.1816 68.3332C12.8855 72.0942 16.3538 75.241 20.3592 77.5676C24.3646 79.894 28.8164 81.3476 33.423 81.833C31.053 78.2666 27.608 74.9856 23.3072 72.4876C19.0065 69.9896 14.452 68.625 10.1816 68.3332Z" fill="url(#paint0_linear_142_30)"/>
            <path d="M29.0862 62.541C20.8005 57.7272 11.8324 56.5004 5.41553 58.6676C6.035 60.715 6.85198 62.6974 7.85496 64.5868C13.4302 64.4576 19.5173 65.9718 25.1814 69.2616C30.8456 72.5514 35.1778 77.0918 37.8288 82C39.968 81.9344 42.096 81.6618 44.1828 81.1864C42.8854 74.5396 37.37 67.3558 29.0862 62.541Z" fill="url(#paint1_linear_142_30)"/>
            <path d="M68.5702 43.0018C67.5168 38.7168 65.6106 34.6881 62.9656 31.1561C60.3206 27.6241 56.991 24.6613 53.1756 22.4447C49.3602 20.2281 45.1372 18.803 40.759 18.2546C36.3806 17.7062 31.9366 18.0458 27.6924 19.2529C34.7828 20.1207 42.6532 22.7824 50.3716 27.2665C58.0902 31.7505 64.3064 37.2682 68.5702 43.0018Z" fill="url(#paint2_linear_142_30)"/>
            <path d="M58.2544 58.7166C54.625 52.6892 48.4078 46.9176 40.7488 42.4684C33.09 38.019 24.9984 35.4776 17.9708 35.3095C11.7882 35.163 7.14799 36.9603 5.24331 40.2394C5.23246 40.2588 5.21728 40.2772 5.20535 40.2968C5.03397 40.9118 4.88645 41.5278 4.75195 42.1462C7.41157 41.0962 10.4931 40.5116 13.9196 40.4464C21.5394 40.3034 30.067 42.7406 37.9364 47.3124C45.8056 51.8844 52.152 58.0876 55.8008 64.7756C57.4366 67.7888 58.4572 70.7554 58.8618 73.5896C59.3326 73.1688 59.7946 72.7338 60.2426 72.2816C60.2546 72.261 60.2622 72.2392 60.274 72.2176C62.1788 68.9354 61.4422 64.0152 58.2544 58.7166Z" fill="url(#paint3_linear_142_30)"/>
            <path d="M34.9218 52.497C23.1932 45.6832 10.2325 44.6158 4 49.371C4.01224 50.8594 4.12603 52.3452 4.34058 53.8182C6.17398 53.2624 8.06354 52.9124 9.97436 52.7748C16.939 52.2508 24.6174 54.1914 31.5854 58.2414C38.5532 62.2916 44.046 68.0036 47.0418 74.3086C47.87 76.036 48.5016 77.8508 48.9248 79.719C50.311 79.1756 51.6588 78.5388 52.9588 77.8132C54.0022 70.0426 46.6536 59.312 34.9218 52.497Z" fill="url(#paint4_linear_142_30)"/>
            <path d="M64.287 48.6282C60.6166 42.6072 54.345 36.8194 46.6318 32.3408C38.9188 27.8622 30.7956 25.2807 23.7453 25.0735C18.3708 24.9184 14.2078 26.2211 12.0493 28.6822C21.0119 27.1636 32.8338 29.7159 44.2922 36.3725C55.7508 43.0292 63.8272 52.0362 66.9446 60.5736C68.013 57.4812 67.0834 53.2196 64.287 48.6282Z" fill="url(#paint5_linear_142_30)"/>
            </g>
            </g>
            <path d="M120.667 73.8177V95.947L96.0533 110.155L71.4257 95.947V67.5167L96.0533 53.2947L114.97 64.222L117.826 62.5747L96.0533 50L68.5703 65.8693V97.5943L96.0533 113.464L123.536 97.5943V72.1704L120.667 73.8177Z" fill="url(#paint6_linear_142_30)"/>
            <path d="M89.1618 95.9607H85.0435V82.1505H98.7713C100.07 82.1361 101.311 81.611 102.226 80.6886C103.14 79.7664 103.655 78.5211 103.658 77.2221C103.666 76.58 103.542 75.9429 103.294 75.3504C103.046 74.7577 102.68 74.2223 102.217 73.7766C101.769 73.3166 101.233 72.9518 100.641 72.7041C100.049 72.4562 99.4131 72.3308 98.7713 72.335H85.0435V68.1344H98.7849C101.191 68.1488 103.494 69.1109 105.195 70.812C106.896 72.5133 107.858 74.8165 107.873 77.2221C107.887 79.0638 107.326 80.8637 106.267 82.37C105.292 83.8114 103.918 84.9372 102.313 85.6098C100.724 86.1138 99.0655 86.364 97.3984 86.3512H89.1618V95.9607Z" fill="url(#paint7_linear_142_30)"/>
            <path d="M107.777 95.6175H102.972L99.2656 89.1517C100.732 89.0619 102.178 88.7662 103.562 88.2732L107.777 95.6175Z" fill="url(#paint8_linear_142_30)"/>
            <path d="M117.798 69.2189L120.64 70.7977L123.482 69.2189V65.8831L120.64 64.2357L117.798 65.8831V69.2189Z" fill="url(#paint9_linear_142_30)"/>
            <defs>
            <filter id="filter0_d_142_30" x="-18.7448" y="-2.47031" width="110.06" height="109.49" filterUnits="userSpaceOnUse" color-interpolation-filters="sRGB">
            <feFlood flood-opacity="0" result="BackgroundImageFix"/>
            <feColorMatrix in="SourceAlpha" type="matrix" values="0 0 0 0 0 0 0 0 0 0 0 0 0 0 0 0 0 0 127 0" result="hardAlpha"/>
            <feOffset dy="2.27449"/>
            <feGaussianBlur stdDeviation="11.3724"/>
            <feComposite in2="hardAlpha" operator="out"/>
            <feColorMatrix type="matrix" values="0 0 0 0 0 0 0 0 0 0 0 0 0 0 0 0 0 0 0.1 0"/>
            <feBlend mode="normal" in2="BackgroundImageFix" result="effect1_dropShadow_142_30"/>
            <feBlend mode="normal" in="SourceGraphic" in2="effect1_dropShadow_142_30" result="shape"/>
            </filter>
            <linearGradient id="paint0_linear_142_30" x1="47.0002" y1="31" x2="17.3335" y2="82" gradientUnits="userSpaceOnUse">
            <stop offset="0.0001" stop-color="#C7F284"/>
            <stop offset="1" stop-color="#00BEF0"/>
            </linearGradient>
            <linearGradient id="paint1_linear_142_30" x1="47.0002" y1="31" x2="17.3335" y2="82" gradientUnits="userSpaceOnUse">
            <stop offset="0.0001" stop-color="#C7F284"/>
            <stop offset="1" stop-color="#00BEF0"/>
            </linearGradient>
            <linearGradient id="paint2_linear_142_30" x1="46.9998" y1="31" x2="17.3331" y2="82" gradientUnits="userSpaceOnUse">
            <stop offset="0.0001" stop-color="#C7F284"/>
            <stop offset="1" stop-color="#00BEF0"/>
            </linearGradient>
            <linearGradient id="paint3_linear_142_30" x1="47.0002" y1="31" x2="17.3336" y2="82" gradientUnits="userSpaceOnUse">
            <stop offset="0.0001" stop-color="#C7F284"/>
            <stop offset="1" stop-color="#00BEF0"/>
            </linearGradient>
            <linearGradient id="paint4_linear_142_30" x1="47" y1="31" x2="17.3333" y2="82" gradientUnits="userSpaceOnUse">
            <stop offset="0.0001" stop-color="#C7F284"/>
            <stop offset="1" stop-color="#00BEF0"/>
            </linearGradient>
            <linearGradient id="paint5_linear_142_30" x1="47.0002" y1="31" x2="17.3335" y2="82" gradientUnits="userSpaceOnUse">
            <stop offset="0.0001" stop-color="#C7F284"/>
            <stop offset="1" stop-color="#00BEF0"/>
            </linearGradient>
            <linearGradient id="paint6_linear_142_30" x1="123.488" y1="65.8868" x2="65.2086" y2="89.1924" gradientUnits="userSpaceOnUse">
            <stop stop-color="#C200FB"/>
            <stop offset="0.489658" stop-color="#3772FF"/>
            <stop offset="0.489758" stop-color="#3773FE"/>
            <stop offset="1" stop-color="#5AC4BE"/>
            </linearGradient>
            <linearGradient id="paint7_linear_142_30" x1="123.488" y1="65.8868" x2="65.2084" y2="89.1924" gradientUnits="userSpaceOnUse">
            <stop stop-color="#C200FB"/>
            <stop offset="0.489658" stop-color="#3772FF"/>
            <stop offset="0.489758" stop-color="#3773FE"/>
            <stop offset="1" stop-color="#5AC4BE"/>
            </linearGradient>
            <linearGradient id="paint8_linear_142_30" x1="123.488" y1="65.8868" x2="65.2086" y2="89.1924" gradientUnits="userSpaceOnUse">
            <stop stop-color="#C200FB"/>
            <stop offset="0.489658" stop-color="#3772FF"/>
            <stop offset="0.489758" stop-color="#3773FE"/>
            <stop offset="1" stop-color="#5AC4BE"/>
            </linearGradient>
            <linearGradient id="paint9_linear_142_30" x1="123.488" y1="65.8868" x2="65.2088" y2="89.1924" gradientUnits="userSpaceOnUse">
            <stop stop-color="#C200FB"/>
            <stop offset="0.489658" stop-color="#3772FF"/>
            <stop offset="0.489758" stop-color="#3773FE"/>
            <stop offset="1" stop-color="#5AC4BE"/>
            </linearGradient>
            </defs>
        </svg>      