 <svg width="128" height="128" viewBox="0 0 128 128" fill="none" xmlns="http://www.w3.org/2000/svg">
            <path d="M112.48 91.3817L95.8068 108.801C95.4444 109.18 95.0058 109.482 94.5185 109.688C94.0312 109.894 93.5055 110 92.9743 110H13.9356C13.5585 110 13.1896 109.893 12.8742 109.691C12.5588 109.49 12.3107 109.203 12.1604 108.866C12.0101 108.529 11.9641 108.157 12.028 107.795C12.092 107.432 12.2631 107.096 12.5204 106.828L29.2061 89.408C29.5676 89.0306 30.0047 88.7295 30.4904 88.5234C30.9762 88.3172 31.5002 88.2104 32.0301 88.2095H111.064C111.441 88.2095 111.81 88.3169 112.126 88.5183C112.441 88.7198 112.689 89.0067 112.84 89.3436C112.99 89.6806 113.036 90.0529 112.972 90.415C112.908 90.7771 112.737 91.1131 112.48 91.3817ZM95.8068 56.3032C95.4444 55.9248 95.0058 55.6231 94.5185 55.4169C94.0312 55.2108 93.5055 55.1045 92.9743 55.1048H13.9356C13.5585 55.1048 13.1896 55.2121 12.8742 55.4136C12.5588 55.6151 12.3107 55.9019 12.1604 56.2388C12.0101 56.5758 11.9641 56.9482 12.028 57.3103C12.092 57.6723 12.2631 58.0083 12.5204 58.277L29.2061 75.6968C29.5676 76.0742 30.0047 76.3752 30.4904 76.5814C30.9762 76.7875 31.5002 76.8944 32.0301 76.8952H111.064C111.441 76.8952 111.81 76.7879 112.126 76.5864C112.441 76.3849 112.689 76.0981 112.84 75.7612C112.99 75.4242 113.036 75.0518 112.972 74.6897C112.908 74.3277 112.737 73.9917 112.48 73.723L95.8068 56.3032ZM13.9356 43.7905H92.9743C93.5055 43.7907 94.0312 43.6845 94.5185 43.4783C95.0058 43.2721 95.4444 42.9704 95.8068 42.592L112.48 25.1722C112.737 24.9036 112.908 24.5676 112.972 24.2055C113.036 23.8434 112.99 23.471 112.84 23.1341C112.689 22.7971 112.441 22.5103 112.126 22.3088C111.81 22.1073 111.441 22 111.064 22H32.0301C31.5002 22.0009 30.9762 22.1077 30.4904 22.3138C30.0047 22.52 29.5676 22.8211 29.2061 23.1985L12.5247 40.6183C12.2677 40.8866 12.0966 41.2223 12.0325 41.5839C11.9684 41.9456 12.0141 42.3177 12.1639 42.6545C12.3136 42.9913 12.5611 43.2781 12.8758 43.4799C13.1905 43.6817 13.5589 43.7896 13.9356 43.7905Z" fill="url(#paint0_linear_142_9)"/>
            <defs>
            <linearGradient id="paint0_linear_142_9" x1="20.5256" y1="112.097" x2="100.993" y2="18.9838" gradientUnits="userSpaceOnUse">
            <stop offset="0.08" stop-color="#9945FF"/>
            <stop offset="0.3" stop-color="#8752F3"/>
            <stop offset="0.5" stop-color="#5497D5"/>
            <stop offset="0.6" stop-color="#43B4CA"/>
            <stop offset="0.72" stop-color="#28E0B9"/>
            <stop offset="0.97" stop-color="#19FB9B"/>
            </linearGradient>
            </defs>
        </svg>          