 <svg width="128" height="128" viewBox="0 0 128 128" fill="none" xmlns="http://www.w3.org/2000/svg">
            <path fill-rule="evenodd" clip-rule="evenodd" d="M52.114 88.613C46.1717 97.719 36.2141 109.243 22.9643 109.243C16.7007 109.243 10.6779 106.665 10.6777 95.464C10.6772 66.9369 49.6237 22.777 85.7602 22.7764C106.317 22.776 114.509 37.0389 114.509 53.2361C114.509 74.0264 101.018 97.799 87.6082 97.799C83.3522 97.799 81.2642 95.462 81.2642 91.756C81.2642 90.789 81.4242 89.741 81.7462 88.613C77.1682 96.429 68.3352 103.683 60.064 103.683C54.0413 103.683 50.99 99.895 50.9899 94.576C50.9899 92.642 51.3914 90.628 52.114 88.613ZM78.9362 44.7103C75.6652 44.7161 73.4352 47.4952 73.4422 51.4598C73.4492 55.4244 75.6892 58.275 78.9602 58.2693C82.1522 58.2636 84.3812 55.4052 84.3742 51.4405C84.3672 47.4759 82.1282 44.7047 78.9362 44.7103ZM96.2872 44.6914C93.0162 44.6972 90.7862 47.4763 90.7932 51.4409C90.8002 55.4055 93.0392 58.2561 96.3112 58.2504C99.5032 58.2448 101.732 55.3863 101.725 51.4216C101.718 47.457 99.4792 44.6858 96.2872 44.6914Z" fill="white"/>
        </svg>  